<svg width="36" height="24" viewBox="0 0 36 24" fill="none" xmlns="http://www.w3.org/2000/svg">
<path d="M35.142 0H0.8568C0.384 0 0 0.3828 0 0.8568V23.142C0 23.616 0.384 24 0.8568 24H35.142C35.6172 24 36 23.616 36 23.142V0.8568C36 0.3828 35.6172 0 35.142 0ZM1.7148 2.7228L12.2964 11.2044L1.7148 20.9532V2.7228ZM18 13.5816L3.198 1.7136H32.8032L18 13.5816ZM13.6488 12.2892L17.4624 15.3468L17.4672 15.3492C17.4756 15.3564 17.4852 15.3636 17.4924 15.3696C17.508 15.3804 17.5224 15.3924 17.538 15.4008C17.5476 15.408 17.5572 15.4128 17.5668 15.4188C17.5836 15.4296 17.6016 15.4392 17.6184 15.4476C17.6268 15.45 17.634 15.4548 17.6412 15.4596C17.6676 15.4704 17.6952 15.4812 17.7216 15.4896C17.7216 15.4896 17.724 15.4896 17.7252 15.492C17.7504 15.4992 17.778 15.5088 17.8044 15.5124C17.8116 15.5148 17.8176 15.5172 17.8248 15.5172C17.8476 15.5232 17.8692 15.5256 17.892 15.528C17.898 15.5304 17.9064 15.5304 17.9124 15.5304C17.9412 15.5352 17.9688 15.5376 17.9976 15.5376C18.0264 15.5376 18.0552 15.5352 18.084 15.5304C18.09 15.5304 18.0972 15.5304 18.1032 15.528C18.1272 15.5256 18.15 15.5232 18.1716 15.5172C18.1788 15.5172 18.186 15.5148 18.192 15.5124C18.2184 15.5088 18.2448 15.4992 18.2712 15.492C18.2724 15.4896 18.2748 15.4896 18.2748 15.4896C18.3024 15.48 18.3288 15.4692 18.3552 15.4596C18.3636 15.4548 18.3708 15.45 18.378 15.4476C18.396 15.438 18.4128 15.4284 18.432 15.4188C18.4416 15.4128 18.4512 15.408 18.4596 15.4008C18.474 15.3912 18.4896 15.3792 18.504 15.3696C18.5136 15.3636 18.5232 15.3564 18.5304 15.3492L18.5352 15.3468L22.3488 12.2892L33.2004 22.2852H2.7984L13.6488 12.2892ZM23.7048 11.2044L34.2852 2.7228V20.9328L23.7048 11.2044Z" fill="#77818F"/>
</svg>
