<svg width="29" height="24" viewBox="0 0 29 24" fill="none" xmlns="http://www.w3.org/2000/svg">
<path d="M19.9747 18.4185C19.0219 18.4185 18.2473 17.2109 18.2473 15.7275C18.2473 14.243 19.0229 13.0344 19.9747 13.0344C20.9264 13.0344 21.7021 14.243 21.7021 15.7275C21.7021 17.2109 20.9274 18.4185 19.9747 18.4185Z" fill="#77818F"/>
<path d="M9.02631 18.4185C8.07356 18.4185 7.2989 17.2109 7.2989 15.7275C7.2989 14.243 8.07453 13.0344 9.02631 13.0344C9.97809 13.0344 10.7537 14.243 10.7537 15.7275C10.7537 17.2109 9.97906 18.4185 9.02631 18.4185Z" fill="#77818F"/>
<path d="M14.4655 24C13.1964 24 12.0276 23.9504 10.9902 23.8551C9.94792 23.7589 8.90661 23.5882 7.89741 23.3471C6.89698 23.108 5.99289 22.7914 5.21239 22.4094C4.43481 22.0264 3.70298 21.5273 3.03634 20.925C2.37166 20.3246 1.81597 19.6181 1.38679 18.8253C0.95567 18.0345 0.613108 17.0859 0.369811 16.0063C0.124568 14.9307 0 13.7072 0 12.3657C0 9.99512 0.789255 7.9183 2.34246 6.18779L2.38333 6.14314L2.36192 6.08658C2.27726 5.85736 2.20038 5.5964 2.12933 5.30268C2.06024 5.00996 1.99406 4.58825 1.93372 4.04846C1.87241 3.51362 1.89577 2.88353 2.00282 2.17704C2.11182 1.47054 2.31424 0.737256 2.60425 0C2.60133 0.0188531 2.6169 0.0248068 2.64318 0.0248068C2.67237 0.0248068 2.71519 0.0168684 2.76385 0.00893024C2.79013 0.00893024 2.8164 0.00793805 2.84171 0.00793805C3.03342 0.00793805 3.21833 0.022822 3.46065 0.0476288C3.83144 0.0843427 4.2392 0.168686 4.6713 0.297681C5.10047 0.426676 5.67271 0.671766 6.42011 1.04883C7.16071 1.42589 7.93731 1.89623 8.72559 2.44594C10.1795 2.07682 12.0928 1.88233 14.4927 1.88233C16.9033 1.88233 18.8205 2.07682 20.1917 2.45983C21.0705 1.89126 21.8432 1.42093 22.5663 1.04784C23.301 0.672758 23.8791 0.426675 24.3336 0.298673C24.7871 0.169678 25.19 0.0823583 25.5316 0.0396907C25.7369 0.0138917 25.9072 0.000992197 26.0415 0.000992197C26.1252 0.000992197 26.1953 0.00595334 26.2507 0.0168683L26.4658 0.0595361C26.6858 0.737256 26.8882 1.46955 26.9962 2.17704C27.1023 2.87659 27.1266 3.50668 27.0653 4.04846C27.004 4.59321 26.9378 5.01493 26.8677 5.30268C26.7987 5.5964 26.7218 5.85736 26.6352 6.08558L26.6147 6.14413L26.6556 6.18878C28.2117 7.91731 29 9.99611 29 12.3666C29 13.6993 28.8754 14.9237 28.6302 16.0063C28.3879 17.0819 28.0424 18.0305 27.6064 18.8253C27.1704 19.6191 26.6108 20.3256 25.9413 20.925C25.2688 21.5283 24.5311 22.0274 23.7516 22.4094C22.9653 22.7924 22.0573 23.108 21.052 23.3471C20.0379 23.5882 18.9956 23.7589 17.9524 23.8551C16.915 23.9504 15.7413 24 14.4655 24ZM9.09735 10.9626C8.8453 10.9626 8.59032 10.9685 8.32854 10.9785C7.69986 11.0023 7.12568 11.1075 6.62156 11.289C6.11648 11.4736 5.66881 11.7475 5.29122 12.1037C4.02802 13.2825 3.38864 14.6012 3.38864 16.0202C3.38864 16.8626 3.49277 17.6187 3.69908 18.2706C3.90637 18.9206 4.17497 19.4762 4.49807 19.9218C4.82409 20.3673 5.28246 20.7523 5.85956 21.0639C6.42498 21.3695 6.98748 21.6096 7.53247 21.7783C8.07161 21.943 8.77328 22.074 9.62093 22.1683C10.4705 22.2606 11.2316 22.3161 11.8836 22.335C12.5473 22.3548 13.3872 22.3628 14.4071 22.3628C15.426 22.3628 16.2678 22.3538 16.9296 22.335C17.5826 22.3161 18.3446 22.2606 19.1942 22.1683C20.0408 22.074 20.7435 21.943 21.2817 21.7783C21.8266 21.6096 22.3891 21.3695 22.9555 21.0649C23.5317 20.7533 23.99 20.3683 24.3151 19.9218C24.6391 19.4782 24.9087 18.9216 25.1141 18.2706C25.3223 17.6227 25.4265 16.8646 25.4265 16.0202C25.4265 14.5794 24.7871 13.2607 23.5229 12.1027C23.1453 11.7475 22.6976 11.4736 22.1916 11.29C21.6884 11.1065 21.1152 11.0023 20.4866 10.9785C20.2248 10.9685 19.9698 10.9626 19.7177 10.9626C19.3645 10.9626 19.019 10.9735 18.6832 10.9933C18.1139 11.0271 17.4074 11.0727 16.5705 11.1313C15.753 11.1888 15.025 11.2186 14.4061 11.2186C13.7881 11.2186 13.0602 11.1888 12.2427 11.1313C11.4058 11.0727 10.6992 11.0281 10.127 10.9933C9.79415 10.9735 9.45159 10.9626 9.09735 10.9626ZM19.7158 9.65081C19.9824 9.65081 20.2608 9.65577 20.5352 9.66569C21.2943 9.69546 21.9969 9.82644 22.6237 10.0537C23.2913 10.2958 23.8859 10.6589 24.391 11.1333C25.9325 12.5512 26.714 14.1954 26.714 16.0222C26.714 16.5371 26.6789 17.0293 26.6108 17.4848L26.7957 17.5403C27.0273 17.0015 27.223 16.3863 27.3777 15.7116C27.5996 14.7312 27.7115 13.606 27.7115 12.3676C27.7115 10.3057 27.0565 8.57519 25.7067 7.07884L25.1316 6.43784L25.4323 5.62716C25.4975 5.44755 25.5608 5.23422 25.6182 4.9921C25.6581 4.83136 25.7194 4.51185 25.7885 3.9016C25.8352 3.48485 25.8128 2.97284 25.7233 2.37946C25.6785 2.07781 25.6123 1.7712 25.5257 1.45864L25.5014 1.37231L25.4148 1.38818C25.1968 1.42887 24.9506 1.4884 24.68 1.56778C24.4319 1.63526 23.9628 1.80593 23.1463 2.22566C22.4835 2.56402 21.7605 3.0036 20.9985 3.53248L20.4321 3.92641L19.852 3.72895C18.5879 3.3757 16.7855 3.1961 14.4927 3.1961C12.2106 3.1961 10.4131 3.3757 9.14699 3.72895L8.48619 3.91351L8.00057 3.53248C7.25316 3.01451 6.52814 2.57395 5.84496 2.22566C5.0197 1.80891 4.55452 1.63427 4.30927 1.56183C4.05235 1.48245 3.80905 1.42589 3.58425 1.38918L3.49861 1.37528L3.47622 1.45963C3.38864 1.77021 3.32246 2.07682 3.27672 2.37847C3.18719 2.97383 3.16578 3.48584 3.21249 3.90061C3.28159 4.50986 3.34387 4.83036 3.3828 4.9921C3.44119 5.23223 3.50347 5.44656 3.56868 5.62616L3.86745 6.43685L3.29327 7.07785C1.94345 8.57618 1.28753 10.3057 1.28753 12.3666C1.28753 13.5971 1.40042 14.7233 1.62328 15.7106C1.71573 16.1135 1.81986 16.4935 1.93956 16.8497L2.12836 16.811C2.10987 16.553 2.09916 16.2921 2.09916 16.0212C2.09916 14.2172 2.87966 12.574 4.41827 11.1392C4.92627 10.6599 5.52381 10.2938 6.19044 10.0537C6.8162 9.82544 7.51884 9.69546 8.27987 9.6647C8.55431 9.65477 8.82973 9.64981 9.09833 9.64981C9.47398 9.64981 9.84671 9.66073 10.2048 9.68157C10.7771 9.7153 11.4933 9.76293 12.3313 9.81949C13.1254 9.87704 13.8241 9.90483 14.408 9.90483C14.9919 9.90483 15.6897 9.87704 16.4848 9.81949C17.3247 9.76293 18.04 9.7163 18.6122 9.68157C18.9694 9.66172 19.3401 9.65081 19.7158 9.65081Z" fill="#77818F"/>
</svg>
