<svg width="24" height="24" viewBox="0 0 24 24" fill="none" xmlns="http://www.w3.org/2000/svg">
<g id="Instagram">
<path d="M18.1884 6.35561C17.5967 6.35561 17.1158 5.87896 17.1158 5.29148V3.55071C17.1158 2.96156 17.5967 2.48325 18.1884 2.48325H19.941C20.5335 2.48325 21.0153 2.96156 21.0153 3.55071V5.29065C21.0153 5.87813 20.5335 6.35478 19.941 6.35478H18.1884V6.35561ZM18.1095 5.36898H20.0207V3.47155H18.1095V5.36898Z" fill="#77818F"/>
<path d="M12.0453 9.28301C10.3314 9.28301 8.9381 10.6671 8.9381 12.3687C8.9381 14.0703 10.3314 15.4545 12.0453 15.4545C13.7601 15.4545 15.1542 14.0703 15.1542 12.3687C15.1542 10.6671 13.7601 9.28301 12.0453 9.28301ZM12.0453 14.3028C10.9727 14.3028 10.0989 13.4354 10.0989 12.3696C10.0989 11.3046 10.9727 10.438 12.0453 10.438C13.1188 10.438 13.9926 11.3046 13.9926 12.3696C13.9926 13.4354 13.1188 14.3028 12.0453 14.3028Z" fill="#77818F"/>
<path d="M23.9815 8.15055V3.23405C23.9815 1.45078 22.5211 0 20.7257 0H3.25579C1.46045 0 0 1.45078 0 3.23405V20.7643C0 22.5492 1.46045 24 3.25579 24H20.7257C22.5211 24 23.9815 22.5492 23.9815 20.7643L23.9849 8.42554C23.995 8.38304 24 8.33888 24 8.29888C24 8.25888 23.9941 8.21471 23.9815 8.15055ZM20.7257 1.15329C21.8807 1.15329 22.8199 2.08659 22.8199 3.23322V7.72306L16.2345 7.7014C15.0661 6.65477 13.5586 6.07896 11.9874 6.07896C11.0331 6.07896 10.1132 6.28562 9.25033 6.69393L9.01196 6.8106C8.39505 7.09059 7.95691 7.51557 7.91327 7.55391C7.85619 7.6014 7.79408 7.65223 7.68581 7.72306H1.1608V3.23322C1.1608 2.35908 1.71728 1.57328 2.54403 1.27496L2.75386 1.19746C2.75638 1.19663 3.02833 1.15246 3.73337 1.15246H20.7257V1.15329ZM11.9882 17.5102C9.13534 17.5102 6.8129 15.2036 6.8129 12.3687C6.8129 9.53634 9.13534 7.23058 11.9882 7.23058C14.8445 7.23058 17.1686 9.53634 17.1686 12.3687C17.1686 15.2045 14.8454 17.5102 11.9882 17.5102ZM1.1608 8.87636H6.72141L6.63915 9.00385C5.99203 10.0147 5.65125 11.1779 5.65125 12.3687C5.65125 15.8394 8.49409 18.6627 11.9882 18.6627C15.4849 18.6627 18.3303 15.8394 18.3303 12.3687C18.3303 11.1754 17.9887 10.0122 17.3415 9.00302L17.2584 8.87636H22.8199V20.7643C22.8199 21.9126 21.8807 22.8475 20.7257 22.8475H3.25579C2.10086 22.8475 1.1608 21.9126 1.1608 20.7643V8.87636Z" fill="#77818F"/>
</g>
</svg>
