<svg width="24" height="24" viewBox="0 0 24 24" fill="none" xmlns="http://www.w3.org/2000/svg">
<path d="M18.7575 23.9992C18.4658 23.9992 18.2283 23.7625 18.2283 23.4708V15.4411C18.2283 12.5379 16.7383 12.5379 16.1767 12.5379C14.6117 12.5379 13.8192 13.5145 13.8192 15.4411V23.4717C13.8192 23.7633 13.5825 24 13.2908 24H8.75C8.45833 24 8.22167 23.7633 8.22167 23.4717V8.17472C8.22167 7.88306 8.45833 7.6464 8.75 7.6464H13.2917C13.5833 7.6464 13.82 7.88306 13.82 8.17472V8.74469L14.0933 8.51887C15.1683 7.62973 16.4508 7.17892 17.905 7.17892C19.7025 7.17892 21.2158 7.75306 22.2808 8.84053C23.4058 9.98882 24 11.6988 24 13.7845V23.4717C24 23.7633 23.7625 24 23.4708 24L18.7575 23.9992ZM16.1775 11.4796C17.3392 11.4796 19.2875 11.9946 19.2875 15.4411V22.9425H22.9417V13.7845C22.9417 10.2588 21.1058 8.23721 17.905 8.23721C15.0467 8.23721 13.8083 10.3955 13.7567 10.4871C13.6633 10.6563 13.4867 10.7613 13.2942 10.7613C13.2508 10.7613 13.2067 10.7546 13.1617 10.7438C12.9267 10.6846 12.7625 10.4755 12.7625 10.2355V8.7047H9.27917V22.9434H12.7625V15.4411C12.7625 12.9604 14.0392 11.4796 16.1775 11.4796Z" fill="#77818F"/>
<path d="M0.983333 23.9992C0.691667 23.9992 0.454167 23.7625 0.454167 23.4708V8.17472C0.454167 7.88306 0.691667 7.6464 0.983333 7.6464H5.72083C6.0125 7.6464 6.24917 7.88306 6.24917 8.17472V23.4708C6.24917 23.7625 6.0125 23.9992 5.72083 23.9992H0.983333ZM1.5125 22.9425H5.19167V8.70386H1.5125V22.9425Z" fill="#77818F"/>
<path d="M3.33083 6.69893C1.49417 6.69893 0 5.19649 0 3.34988C0 1.50245 1.49417 0 3.33083 0C5.165 0 6.65833 1.50328 6.65833 3.35072C6.65833 5.19649 5.165 6.69893 3.33083 6.69893ZM3.33083 1.05496C2.0775 1.05496 1.05833 2.08409 1.05833 3.34988C1.05833 4.61484 2.0775 5.6423 3.33083 5.6423C4.58333 5.6423 5.60167 4.61484 5.60167 3.34988C5.60083 2.08493 4.58333 1.05496 3.33083 1.05496Z" fill="#77818F"/>
</svg>
